<svg xmlns="http://www.w3.org/2000/svg" xmlns:xlink="http://www.w3.org/1999/xlink" width="106" height="25" viewBox="0 0 106 25">
    <defs>
        <path id="a" d="M71.027.108l.537.056c.483.054.9.1 1.235.038l.065-.011.066-.007c1.105-.11 2.124.001 3.11.11.944.104 1.836.202 2.727.09l.213-.027.213.03c.446.063.964.026 1.512-.014.77-.057 1.64-.11 2.58.075.202 0 .415-.002.508-.003h.049l.335.013.281-.087h2.933c4.53.002 9.154.01 13.7.066l.226.024-.052-.007.245-.025c.549-.067 1.57-.192 2.37.616.35.353.755.995.71 2.009-.03 1.248.01 2.518.049 3.746l.06 2.872.11 12.051c.008.708.02 1.779-.63 2.689l-.235.33-.343.189c-.933.517-1.873.405-2.494.331-.18-.021-.45-.053-.539-.038l-.159.034-.13.006c-5.314.267-10.602.19-15.519.066l-18.708-.454c-2.425.04-4.842-.05-7.18-.135l-4.13-.126c-2.778 0-5.65-.001-8.538-.064-2.818.096-5.508.085-8.356.072l-2.867-.008-.052-.001c-3.05-.1-6.179-.005-9.206.086-2.818.086-5.73.173-8.651.11-2.498-.086-5.046-.115-7.51-.143l-3.926-.053-.037-.002c-.974-.057-2.078-.122-3.167-.006l-.392.042-.37-.147c-.671-.265-1.221-.898-1.436-1.653l-.074-.254L.05 3.002l.042-.206C.376 1.434 1.453.56 2.702.63a9.76 9.76 0 0 1 1.417.053c.425.039.792.073 1.147.026l.136-.018.138.005c3.803.154 6.823.174 9.506.064l.144-.006.144.02c.291.041.603.017.963-.01a8.227 8.227 0 0 1 1.414-.006C20.73.55 23.81.548 26.79.55h1.457C30.2.548 32.185.53 34.12.437l5.536-.073C42.333.348 45.1.333 47.904.178l.047-.002L70.965.11l.062-.002zm-.062 1.859c-7.675 0-15.297.065-22.973.065-4.736.26-9.2.13-13.827.26-5.39.26-10.996-.065-16.441.324-.926-.128-1.688.13-2.613 0-3.159.13-6.425.066-9.635-.064-.98.13-1.797-.13-2.776-.064-.437-.066-.818.194-.926.714.053 6.497.053 12.801.108 19.103.056.196.218.389.38.453 1.199-.128 2.342-.064 3.431 0 3.81.067 7.621.067 11.433.196 5.988.13 11.921-.389 17.855-.196 3.81 0 7.458.067 11.215-.064 2.885.064 5.716.064 8.546.064 3.757.067 7.513.326 11.324.26 6.26.13 12.467.327 18.727.456 5.171.13 10.235.196 15.406-.064.817-.196 1.797.323 2.614-.13.325-.455.271-1.17.271-1.755-.054-3.833-.054-7.926-.107-11.826 0-2.21-.164-4.419-.11-6.692.055-1.236-1.198-.585-1.796-.714-5.445-.066-10.942-.066-16.386-.066-.492.195-1.09 0-1.58.066-1.415-.326-2.776.129-4.138-.066-2.068.26-3.918-.39-5.878-.195-.708.13-1.416 0-2.124-.065zm-6.533 1.235c.327.324.872.13 1.307.192 2.614.066 5.335-.192 8.003.066 5.988.131 11.976.198 17.91.26 3.103-.062 6.314-.062 9.364-.129.653 0 .98.78.98 1.429-.163.456-.163.975-.163 1.496.163 2.144.108 4.222.053 6.431.164 2.795 0 5.653.164 8.317-.054.392-.164.845-.544.845-1.524 0-2.994.13-4.52.196-2.449-.066-5.062-.066-7.457-.196-.87.392-1.743.13-2.667.065-6.098.065-11.813-.518-17.965-.454-1.851.065-3.975-.13-5.935 0-3.756-.195-7.62-.13-11.267-.195-2.67-.131-5.499 0-8.112 0-7.24-.066-14.97-.131-22.212.065-1.142-.065-2.395.066-3.538.066-1.905.13-3.81-.13-5.716-.066H8.633c-1.088 0-2.178-.065-3.266-.065-.763-.131-1.58.065-2.179-.584-.325-.391-.162-1.041-.271-1.56.054-4.872-.163-10.006 0-14.815.054-.455.435-.714.817-.714 2.666 0 5.225.129 7.784.129 10.29-.129 20.525-.323 30.812-.455 5.553-.066 11.269-.194 16.876-.132 1.635-.128 3.538.197 5.226-.192zm24.063 2.404c-.98 0-2.233-.064-2.777 1.17-1.469 1.884-2.178 4.157-2.504 6.562-.054.195-.109.454-.272.26-.435-2.08-.49-4.42-.817-6.628-.11-.13-.162-.326-.38-.39-.818.456-.6 1.754-.653 2.73 0 2.144-.709 4.158-.655 6.366.056.91-.271 2.274.382 2.99.6.194 1.524.324 2.013-.194.382-.522.382-1.3.382-2.016 0-.322-.163-1.039.272-.91a11.364 11.364 0 0 0 2.342 3.379c.761.91 1.795 1.04 2.667 1.689 1.09.262 2.503.65 3.538.13 0-.324.327-.648-.053-.909-1.58-.13-3.213-.196-4.52-1.235-.707-.714-1.524-1.559-1.96-2.597-.762-2.665.328-5.46 2.123-7.149.98-1.3 2.506-1.493 3.594-2.729.054-.195.163-.26.163-.454 0-.129-.11-.26-.163-.324-.872-.262-1.85.064-2.722.259zM7.164 7.426c-.98.714-1.907 1.883-2.18 3.183-.652 1.56-.652 3.835.057 5.394.706 1.362 1.687 2.987 3.211 3.052 1.197.584 3.156-.779 3.593 1.3.436.586 1.198.259 1.687 0 .926-2.014-.87-5.067 1.306-6.237.164-.326.382-.845.11-1.17-.598-.585-1.198.194-1.742.258-.653.393-1.47.132-2.014.78-.491.975.87.651 1.251 1.172.218.26.11.649.055.976-.926 1.493-2.613.582-3.755.192-1.145-.909-1.96-2.34-2.015-3.963.163-1.43 0-2.923 1.142-3.833.491-.262 1.035-.324 1.525-.584 1.47-.326 2.83.453 3.81 1.56.219-.066.273-.328.273-.587-.49-1.039-1.306-1.558-2.122-2.144-1.308-.387-2.995-.131-4.192.65zm41.808-2.6c-1.578-.064-2.83.975-4.137 1.818-.6.196-1.198.392-1.634.91-.326.586.218.976.545 1.3.054 1.104.435 2.47-.707 2.924-.382.196-.816.066-1.09-.324-.49-1.17-.98-2.276-1.47-3.38-1.47-1.624-3.102-2.924-5.117-2.794-.163.131-.436.262-.326.521.49.194 1.034.455 1.524.587 1.906.648 3.266 2.987 3.484 5.26-.163 1.172-.163 2.534-.654 3.575-1.087 1.299-2.068 3.377-3.81 3.25-.654-.846.545-.977.763-1.561.436-.778 0-1.69 0-2.6a35.383 35.383 0 0 1-1.144-6.044c-.054-.322 0-.842-.381-.842-.382.648-.217 1.493-.163 2.273.11 2.535-.272 4.873-.545 7.149.055.779.273 1.493.326 2.338-.108.39-.707.65-.38 1.105.98.453 2.231.064 3.321.323.926-.13 1.307-1.104 2.068-1.624 1.199-1.43 2.287-3.054 2.232-5.132.273-.585.817-1.038 1.362-.716 1.251.326.326 1.95.544 2.925.163.909-.708 1.625-.164 2.47 1.905.453 3.757 1.167 5.607 1.818.6.129 1.252.389 1.905.195.382-.388.708-.846.764-1.364 0-.39.053-.976-.164-1.3-.6-.714-1.47-.194-2.07 0-1.088 0-2.504.78-3.265-.521-.544-1.362-.872-2.921-.98-4.418.49-1.299 2.014-.779 2.94-.908.435.064.98 0 1.252-.457.162-.387.162-1.103-.164-1.362-1.034-.196-1.85.583-2.939.454-.6-.13-1.416.13-1.634-.782-.163-.583-.326-1.298 0-1.818 1.578-1.038 3.43-.713 5.281-.908.545-.39.87-1.106.925-1.886-.38-.648-1.307-.324-1.905-.454zm46.818.194c-1.253.522-2.233 1.69-3.43 2.081-.272.325-.817.128-.925.649-.11.584.489.78.76 1.104.328.521.328 1.235.328 1.884-.054.65-.599.91-.925 1.43-.436.78.544.974.598 1.624-.216 1.366-.163 2.794-.544 4.094 0 .194.11.39.218.52 2.014.78 4.137 1.43 6.26 2.014.49.13 1.09.13 1.525 0 .38-.52.599-1.234.544-1.948-.108-.457-.271-1.04-.762-1.04-1.524.129-3.375.909-4.682-.26-.272-1.496-1.415-2.99-.707-4.614 1.142-.455 2.557-.324 3.648-.39.217 0 .27-.26.434-.39.054-.518.164-.845 0-1.3-.164-.843-1.033-.586-1.47-.39-1.034.066-2.286 1.494-3.156 0-.164-.518-.274-1.234 0-1.754.597-.78 1.577-.714 2.449-.78 1.252-.388 2.776.52 3.43-1.166.107-.393.38-.977.054-1.368-1.143-.322-2.613-.843-3.647 0zM26.488 7.166c0 2.404-.271 4.612-.271 6.952-.164 1.3.271 2.533-.273 3.703-.272.52-1.361.065-1.034 1.039 1.09.522 2.396.522 3.593.716.926.26 1.798.586 2.722.844.273.064.545-.258.598-.585-.11-.583-.325-1.235-.216-1.95-.654-1.299-1.47.325-2.342-.064-.436-.26-.925-.649-1.034-1.235a278.266 278.266 0 0 1-.98-9.485c0-.26-.055-.457-.273-.65-.326-.063-.435.39-.49.715zm27.765-1.43c.108.908.87 1.625.598 2.729 0 2.989-1.142 5.717-2.177 8.317-.273 1.168.49 2.014 1.143 2.663.218.13.326-.193.49-.39.054-1.105.49-2.014.98-2.921.38-2.016.49-4.16.708-6.176.054-.26.273-.452.49-.452 1.688 1.168 2.232 3.314 3.158 5.066.38.716.38 1.624.87 2.21.218 0 .436.066.545-.196.436-3.38.489-7.146.598-10.591 0-.194-.162-.324-.271-.26-.49.587-.49 1.56-.763 2.34-.163.52-.163 1.103-.49 1.56-.76.323-1.361-.521-1.96-.91-.707-.52-1.198-1.364-1.96-1.82-.49-.455-.544-1.17-1.033-1.558-.382-.197-.654.13-.926.388zm-35.385 2.21c0 .194-.11.453.108.519.654-.454 1.47-.78 2.341-.65.544.26 1.088.845 1.307 1.494.163 1.106.653 2.209.38 3.314-.108 1.56-1.143 2.859-2.286 3.313-.817.131-1.579 0-2.231-.519-1.143-1.235-1.416-3.054-1.253-4.808-.055-.845.545-1.495.325-2.275-.38.13-.488.65-.651.975-1.144 2.273-1.035 5.263-.11 7.603.71 1.429 1.797 2.533 3.267 2.34 1.687.13 3.267-1.042 4.029-2.926 1.197-2.6.816-5.783-.327-8.186-.38-1.3-1.524-1.3-2.45-1.496-1.035-.256-1.85.457-2.449 1.302zM74.504 6.06c-1.034.262-2.068.52-2.776 1.626-.273.52-.599.974-.872 1.558-.108-.066-.108.065-.163 0-.218-1.038.545-1.883 0-2.856a.403.403 0 0 0-.49.192c-.817 2.014-1.47 4.158-2.34 6.174-.164.519-.655 1.233-1.144.972-.925-1.168-1.251-2.727-1.905-3.962-.598-.973-.817-2.338-1.742-2.86-.218 0-.38.197-.38.457.543 1.948 1.142 3.899 1.578 5.977.38 1.623.218 3.703 1.632 4.808.708.13 1.525.454 2.178 0 .653-1.82 1.143-3.768 1.687-5.719.11-.324.11-.91.545-.973.436.909.327 2.08.708 3.055.435 1.167.653 2.532 1.632 3.377 1.09 1.104 2.67.714 3.975.52.926-.649 1.96-1.365 2.558-2.47 1.088-2.21 1.198-5.393 0-7.602-.815-2.143-2.884-3.378-4.681-2.274zm.817 1.3c.653.066 1.306.194 1.686.846.927 1.558.654 3.768 0 5.393-.488 1.103-1.414 1.428-2.286 1.624-.98-.13-1.796-1.105-2.285-2.08-.382-1.299-.545-2.728-.164-4.03.218-.973 1.09-.259 1.524-.648.381-.65.925-.975 1.525-1.104z"/>
    </defs>
    <use fill="#000608" fill-rule="evenodd" xlink:href="#a"/>
</svg>
