<?xml version="1.0" standalone="no"?>
<!DOCTYPE svg PUBLIC "-//W3C//DTD SVG 20010904//EN"
 "http://www.w3.org/TR/2001/REC-SVG-20010904/DTD/svg10.dtd">
<svg version="1.0" xmlns="http://www.w3.org/2000/svg"
 width="141.000000pt" height="34.000000pt" viewBox="0 0 141.000000 34.000000"
 preserveAspectRatio="xMidYMid meet">
<metadata>
Created by potrace 1.10, written by Peter Selinger 2001-2011
</metadata>
<g transform="translate(0.000000,34.000000) scale(0.100000,-0.100000)"
fill="#000000" stroke="none">
<path d="M24 323 c-3 -10 -4 -22 -4 -27 1 -5 -4 -13 -12 -18 -11 -8 -11 -9 0
-6 8 2 14 8 14 13 0 6 4 20 9 33 5 12 6 22 3 22 -3 0 -8 -8 -10 -17z"/>
<path d="M203 325 c0 -8 4 -12 9 -9 5 3 6 10 3 15 -9 13 -12 11 -12 -6z"/>
<path d="M286 329 c3 -5 9 -7 14 -4 5 3 11 -3 14 -12 4 -15 5 -15 3 1 -1 11
-10 20 -20 22 -9 1 -15 -2 -11 -7z"/>
<path d="M522 324 c-7 -8 -8 -14 -3 -14 10 0 25 19 20 25 -2 1 -10 -3 -17 -11z"/>
<path d="M705 331 c-3 -5 0 -13 6 -17 8 -5 9 -3 4 6 -6 10 -4 12 9 7 10 -4 15
-3 11 3 -8 13 -22 13 -30 1z"/>
<path d="M867 323 c3 -7 6 -13 8 -13 2 0 5 6 8 13 3 8 -1 14 -8 14 -7 0 -11
-6 -8 -14z"/>
<path d="M940 320 c5 -9 6 -21 2 -26 -4 -5 2 -2 12 6 18 14 19 14 7 -10 -11
-24 -11 -24 3 -6 21 26 20 29 -9 42 -22 11 -24 10 -15 -6z"/>
<path d="M1251 324 c0 -11 3 -14 6 -6 3 7 2 16 -1 19 -3 4 -6 -2 -5 -13z"/>
<path d="M1381 319 c5 -10 15 -21 22 -25 8 -6 8 -3 -1 9 -8 9 -11 20 -8 25 3
5 -1 9 -9 9 -10 0 -11 -5 -4 -18z"/>
<path d="M353 311 c0 -11 5 -18 9 -15 4 3 5 11 1 19 -7 21 -12 19 -10 -4z"/>
<path d="M1113 319 c-7 -7 -13 -28 -13 -46 0 -31 -2 -33 -36 -33 -47 0 -40
-20 12 -35 38 -10 39 -12 46 -65 4 -35 13 -59 25 -68 16 -11 18 -11 21 8 2 12
-3 41 -12 65 l-15 44 37 6 c54 9 64 14 57 25 -3 5 -24 10 -45 10 -44 0 -48 4
-58 60 -6 33 -9 39 -19 29z m22 -99 c3 -5 2 -10 -4 -10 -5 0 -13 5 -16 10 -3
6 -2 10 4 10 5 0 13 -4 16 -10z"/>
<path d="M675 309 c-4 -6 -5 -12 -2 -15 2 -3 7 2 10 11 7 17 1 20 -8 4z"/>
<path d="M415 300 c-3 -6 1 -7 9 -4 18 7 21 14 7 14 -6 0 -13 -4 -16 -10z"/>
<path d="M485 300 c-3 -5 -1 -10 4 -10 6 0 11 5 11 10 0 6 -2 10 -4 10 -3 0
-8 -4 -11 -10z"/>
<path d="M600 300 c-9 -6 -10 -10 -3 -10 6 0 15 5 18 10 8 12 4 12 -15 0z"/>
<path d="M773 293 c0 -8 4 -9 11 -4 6 5 20 11 31 14 12 3 8 5 -11 4 -18 -1
-31 -6 -31 -14z"/>
<path d="M883 292 c-8 -14 -8 -19 1 -19 7 0 13 9 13 19 1 10 1 18 0 18 -1 0
-7 -8 -14 -18z"/>
<path d="M1331 294 c0 -11 3 -14 6 -6 3 7 2 16 -1 19 -3 4 -6 -2 -5 -13z"/>
<path d="M61 275 c-90 -76 -47 -205 68 -205 34 0 53 5 64 18 32 35 22 38 -65
16 -43 -10 -78 18 -78 62 0 69 46 120 80 89 23 -20 29 -19 23 6 -3 11 -17 25
-30 30 -31 12 -27 13 -62 -16z"/>
<path d="M196 289 c5 -9 31 -6 40 4 4 4 -4 6 -19 5 -14 -1 -24 -5 -21 -9z"/>
<path d="M1190 280 c6 -11 13 -20 16 -20 2 0 0 9 -6 20 -6 11 -13 20 -16 20
-2 0 0 -9 6 -20z"/>
<path d="M1350 292 c0 -5 7 -9 15 -9 8 0 12 4 9 9 -3 4 -9 8 -15 8 -5 0 -9 -4
-9 -8z"/>
<path d="M250 284 c0 -20 27 -37 36 -23 4 7 3 9 -4 5 -6 -3 -15 2 -21 11 -6
10 -11 13 -11 7z"/>
<path d="M515 280 c-3 -5 -1 -10 4 -10 6 0 11 5 11 10 0 6 -2 10 -4 10 -3 0
-8 -4 -11 -10z"/>
<path d="M1255 279 c-11 -16 -1 -19 13 -3 7 8 8 14 3 14 -5 0 -13 -5 -16 -11z"/>
<path d="M313 265 c0 -8 4 -12 9 -9 4 3 8 9 8 15 0 5 -4 9 -8 9 -5 0 -9 -7 -9
-15z"/>
<path d="M350 265 c8 -11 15 -21 16 -23 1 -2 5 5 8 15 4 9 4 14 0 10 -4 -4
-14 -1 -23 6 -14 11 -15 10 -1 -8z"/>
<path d="M421 278 c2 -2 14 -11 26 -21 20 -18 21 -18 19 -1 -2 9 -13 19 -26
21 -13 2 -22 2 -19 1z"/>
<path d="M190 266 c0 -2 7 -7 16 -10 8 -3 12 -2 9 4 -6 10 -25 14 -25 6z"/>
<path d="M545 260 c3 -5 8 -10 11 -10 2 0 4 5 4 10 0 6 -5 10 -11 10 -5 0 -7
-4 -4 -10z"/>
<path d="M408 248 c5 -5 16 -8 23 -6 8 3 3 7 -10 11 -17 4 -21 3 -13 -5z"/>
<path d="M486 248 c3 -5 10 -6 15 -3 13 9 11 12 -6 12 -8 0 -12 -4 -9 -9z"/>
<path d="M520 256 c0 -2 8 -10 18 -17 15 -13 16 -12 3 4 -13 16 -21 21 -21 13z"/>
<path d="M760 251 c-16 -4 -32 -21 -44 -45 -16 -32 -17 -44 -7 -77 6 -21 20
-43 31 -49 28 -15 106 -12 119 4 17 20 0 28 -47 20 -23 -3 -48 -2 -58 5 -18
10 -17 10 4 11 13 0 34 11 48 25 47 47 15 121 -46 106z m36 -46 c8 -20 -13
-45 -37 -45 -21 0 -24 12 -9 41 13 23 38 25 46 4z"/>
<path d="M856 252 c-2 -4 0 -14 6 -22 8 -12 9 -12 5 2 -3 9 -1 19 6 22 9 3 9
5 0 5 -6 1 -14 -3 -17 -7z"/>
<path d="M945 250 c-3 -6 1 -7 9 -4 18 7 21 14 7 14 -6 0 -13 -4 -16 -10z"/>
<path d="M575 218 c-30 -35 -30 -79 0 -124 29 -45 115 -23 115 29 0 21 -10 21
-36 2 -10 -8 -29 -15 -41 -15 -20 0 -23 5 -23 38 0 53 12 66 49 59 34 -7 40 3
15 27 -24 24 -50 19 -79 -16z"/>
<path d="M185 221 c-6 -11 13 -26 22 -17 4 3 1 6 -6 6 -7 0 -9 5 -6 10 3 6 4
10 1 10 -3 0 -7 -4 -11 -9z"/>
<path d="M260 208 c-88 -60 -35 -176 57 -127 69 37 61 149 -10 149 -8 0 -29
-10 -47 -22z m71 -30 c4 -40 -26 -78 -61 -78 -32 0 -32 30 -1 61 31 30 60 38
62 17z"/>
<path d="M957 212 c-9 -10 -17 -24 -17 -30 0 -21 -16 -13 -28 13 -14 31 -32
33 -32 3 1 -49 68 -155 83 -131 3 5 5 30 4 55 -2 52 17 84 33 58 7 -12 12 -12
22 -2 9 9 10 17 2 30 -15 24 -47 26 -67 4z"/>
<path d="M1310 223 c-37 -14 -70 -57 -70 -93 0 -45 15 -60 58 -60 47 0 92 46
92 93 0 50 -35 77 -80 60z m50 -55 c0 -27 -37 -68 -62 -68 -32 0 -33 29 -2 61
33 35 64 39 64 7z"/>
<path d="M106 212 c5 -4 12 -11 15 -15 3 -5 9 -2 12 5 3 9 -3 14 -15 15 -11 1
-16 -1 -12 -5z"/>
<path d="M148 191 c-15 -15 -14 -16 10 -17 15 -1 21 1 13 3 -10 4 -10 7 -1 13
7 4 8 10 4 12 -5 3 -16 -2 -26 -11z"/>
<path d="M438 185 c-26 -25 -26 -26 -33 -5 -8 24 -25 17 -25 -10 0 -32 31
-100 46 -100 7 0 16 12 20 28 20 96 63 96 64 0 0 -21 5 -28 20 -28 18 0 20 5
14 43 -7 50 -33 91 -61 95 -11 2 -31 -9 -45 -23z"/>
<path d="M76 173 c-6 -14 -5 -15 5 -6 7 7 10 15 7 18 -3 3 -9 -2 -12 -12z"/>
<path d="M106 157 c3 -10 9 -15 12 -12 3 3 0 11 -7 18 -10 9 -11 8 -5 -6z"/>
<path d="M1026 147 c3 -10 9 -15 12 -12 3 3 0 11 -7 18 -10 9 -11 8 -5 -6z"/>
<path d="M1018 106 c12 -7 20 -15 17 -19 -3 -4 -2 -5 2 -2 17 13 8 30 -16 32
l-26 1 23 -12z"/>
<path d="M470 86 c0 -2 8 -10 18 -17 15 -13 16 -12 3 4 -13 16 -21 21 -21 13z"/>
<path d="M1077 55 c3 -8 9 -12 14 -9 12 7 11 11 -5 17 -10 4 -13 1 -9 -8z"/>
<path d="M328 38 c-10 -10 -14 -18 -9 -18 10 0 36 29 30 34 -2 1 -12 -6 -21
-16z"/>
<path d="M395 51 c-3 -5 -2 -12 3 -15 5 -3 9 1 9 9 0 17 -3 19 -12 6z"/>
<path d="M906 52 c-3 -5 1 -9 9 -9 8 0 12 4 9 9 -3 4 -7 8 -9 8 -2 0 -6 -4 -9
-8z"/>
<path d="M280 36 c-6 -8 -19 -12 -28 -9 -14 6 -15 5 -2 -9 8 -9 15 -15 15 -14
0 0 9 11 19 24 11 12 17 22 14 22 -3 0 -11 -6 -18 -14z"/>
<path d="M479 34 c-7 -8 -7 -14 1 -19 6 -4 9 -1 8 6 -2 7 2 13 9 14 17 0 25
12 8 12 -8 0 -20 -6 -26 -13z"/>
<path d="M989 49 c0 -2 -2 -11 -4 -20 -1 -9 3 -16 10 -16 7 0 12 6 11 13 -2
13 -15 31 -17 23z"/>
<path d="M65 31 c-3 -5 0 -13 6 -17 8 -5 9 -3 4 6 -6 10 -4 12 9 7 10 -4 15
-3 11 3 -8 13 -22 13 -30 1z"/>
<path d="M166 28 c3 -5 10 -6 15 -3 13 9 11 12 -6 12 -8 0 -12 -4 -9 -9z"/>
<path d="M1150 31 c0 -6 4 -13 10 -16 6 -3 7 1 4 9 -7 18 -14 21 -14 7z"/>
<path d="M1340 33 c0 -7 10 -18 23 -24 12 -6 19 -8 15 -4 -4 5 -2 15 5 24 11
14 10 14 -6 2 -16 -13 -20 -13 -28 0 -6 9 -9 10 -9 2z"/>
<path d="M135 20 c3 -5 8 -10 11 -10 2 0 4 5 4 10 0 6 -5 10 -11 10 -5 0 -7
-4 -4 -10z"/>
<path d="M521 14 c0 -11 3 -14 6 -6 3 7 2 16 -1 19 -3 4 -6 -2 -5 -13z"/>
<path d="M606 13 c-6 -14 -5 -15 5 -6 7 7 10 15 7 18 -3 3 -9 -2 -12 -12z"/>
<path d="M805 20 c-4 -6 -12 -7 -18 -4 -7 4 -8 3 -4 -1 13 -15 34 -14 34 1 0
17 -4 18 -12 4z"/>
<path d="M888 23 c7 -3 16 -2 19 1 4 3 -2 6 -13 5 -11 0 -14 -3 -6 -6z"/>
<path d="M1084 19 c-4 -7 -3 -9 4 -5 5 3 13 0 15 -6 4 -9 6 -10 6 -1 1 17 -16
25 -25 12z"/>
<path d="M1226 18 c7 -10 24 -10 24 0 0 5 -7 9 -15 9 -8 0 -12 -4 -9 -9z"/>
<path d="M738 13 c7 -3 16 -2 19 1 4 3 -2 6 -13 5 -11 0 -14 -3 -6 -6z"/>
</g>
</svg>
